<?xml version="1.0" encoding="utf-8"?>
<!-- Generator: Adobe Illustrator 19.0.0, SVG Export Plug-In . SVG Version: 6.00 Build 0)  -->
<svg version="1.1" id="Layer_1" xmlns="http://www.w3.org/2000/svg" xmlns:xlink="http://www.w3.org/1999/xlink" x="0px" y="0px"
	 viewBox="0 0 283 512.8" style="enable-background:new 0 0 283 512.8;" xml:space="preserve">
<style type="text/css">
	.st0{fill:#333333;}
</style>
<g id="XMLID_2_">
	<g id="XMLID_40_">
		<path id="XMLID_41_" class="st0" d="M216.3,196.3c-7.7,5-16.9,8-26.8,8c-5.4,0-10.7-0.9-15.6-2.5c3.9,3.5,7.3,7.6,10,12.2
			c2.6,4.5,4.5,9.3,5.5,14.3L216.3,196.3z M144.1,285.5c7.3-0.4,14.5-2.5,21-6.2c10.9-6.3,18.7-16.4,21.9-28.6
			c1.6-5.9,2-11.9,1.3-17.8L144.1,285.5z M189.6,108.1c-26,0-47.1,21.1-47.1,47.1c0,26,21.1,47.1,47.1,47.1
			c13.3,0,25.3-5.5,33.8-14.4l4.3-5.1l0,0c5.7-7.8,9-17.3,9-27.7C236.7,129.2,215.5,108.1,189.6,108.1z M157.1,191.9
			c-7.8-6.9-13.5-16.3-15.6-26.9c-2.2,10.6-7.8,20-15.6,26.9c5-1.7,10.3-2.6,15.5-2.6C146.8,189.3,152.1,190.3,157.1,191.9z
			 M93.4,202.2c26,0,47.1-21.1,47.1-47.1c0-26-21.1-47.1-47.1-47.1c-26,0-47.1,21.1-47.1,47.1C46.3,181.1,67.4,202.2,93.4,202.2z
			 M100.7,262c8.1,14,22.9,22.8,38.9,23.5l-44.9-52.8C93.5,242.8,95.5,253,100.7,262z M117.9,197.7C107,204,99.3,214.1,96,226.3
			c-0.3,1.3-0.6,2.5-0.8,3.8l46.7,55l46-54.8c-1-5.3-2.8-10.5-5.6-15.3c-8.4-14.5-24-23.6-40.8-23.6
			C133.2,191.3,125.1,193.5,117.9,197.7z M108.9,201.7c-4.9,1.6-10.1,2.5-15.5,2.5c-10,0-19.3-3-27-8.1l27.1,31.9
			c0.2-0.8,0.4-1.5,0.6-2.3C96.6,216.3,101.7,208,108.9,201.7z M44.3,155.2c0-27.1,22-49.1,49.1-49.1c23.7,0,43.5,16.9,48.1,39.2
			c4.6-22.3,24.4-39.2,48.1-39.2c27.1,0,49.1,22,49.1,49.1c0,13.2-5.3,25.2-13.8,34L190,230.8c1.1,6.7,0.7,13.6-1.1,20.4
			c-3.4,12.7-11.5,23.3-22.9,29.8c-7.4,4.3-15.7,6.5-24.1,6.6c0,0,0,0,0,0c0,0,0,0,0,0c0,0,0,0,0,0c-0.1,0-0.2,0-0.3,0
			c-17.5,0-33.8-9.4-42.6-24.6c-5.7-9.9-7.8-21.2-5.9-32.4L55.1,186l0,0C48.4,177.5,44.3,166.8,44.3,155.2z"/>
	</g>
	<g id="XMLID_28_">
		<path id="XMLID_38_" class="st0" d="M78.2,381.7c-2.9,2.8-5.9,4.8-9,5.8c-3.2,1-6.6,1.6-10.3,1.6c-3.7,0-7.1-0.6-10.1-1.7
			c-3-1.1-5.6-2.7-7.7-4.7s-3.7-4.5-4.9-7.3c-1.1-2.9-1.7-6-1.7-9.6c0-3.4,0.6-6.5,1.7-9.4c1.1-2.9,2.6-5.3,4.6-7.4
			c1.9-2,4.2-3.7,6.8-4.8c2.6-1.2,5.4-1.7,8.3-1.7c3,0,5.7,0.6,7.9,1.9c2.3,1.3,3.9,3.1,4.9,5.6v-6.4h8.9v20.7h-8.9
			c0-3.9-1.1-7-3.2-9.4s-4.9-3.5-8.3-3.5c-1.4,0-2.8,0.3-4.3,0.8s-2.9,1.4-4.1,2.6c-1.3,1.2-2.3,2.7-3.1,4.5s-1.2,4-1.2,6.5
			c0,2.5,0.4,4.6,1.2,6.4c0.8,1.8,1.8,3.3,3.1,4.4c1.3,1.2,2.8,2,4.6,2.6c1.8,0.6,3.6,0.9,5.4,0.9c3.2,0,6-0.5,8.3-1.5
			s4.4-2.3,6.1-4L78.2,381.7z"/>
		<path id="XMLID_35_" class="st0" d="M134.3,365.9c0,3.5-0.5,6.6-1.6,9.4c-1.1,2.8-2.7,5.3-4.7,7.3c-2,2-4.5,3.6-7.4,4.8
			s-6,1.7-9.6,1.7c-3.5,0-6.6-0.6-9.5-1.7s-5.3-2.7-7.4-4.8c-2-2-3.6-4.5-4.7-7.3c-1.1-2.8-1.6-6-1.6-9.4c0-3.4,0.5-6.5,1.6-9.4
			c1.1-2.9,2.7-5.3,4.7-7.4c2-2.1,4.5-3.7,7.4-4.8s6-1.7,9.5-1.7c3.5,0,6.7,0.6,9.6,1.7s5.3,2.7,7.4,4.8c2,2.1,3.6,4.6,4.7,7.4
			C133.7,359.4,134.3,362.5,134.3,365.9z M124.4,365.9c0-2-0.3-3.9-0.9-5.7s-1.5-3.3-2.7-4.6c-1.2-1.3-2.6-2.3-4.2-3
			c-1.7-0.7-3.5-1.1-5.6-1.1c-2.1,0-4,0.4-5.6,1.1s-3,1.8-4.2,3c-1.1,1.3-2,2.8-2.6,4.6s-0.9,3.7-0.9,5.7c0,2.1,0.3,4,0.9,5.7
			c0.6,1.7,1.5,3.2,2.6,4.5s2.5,2.3,4.2,3c1.6,0.7,3.5,1.1,5.6,1.1c2.1,0,3.9-0.4,5.6-1.1c1.7-0.7,3.1-1.7,4.2-3
			c1.2-1.3,2.1-2.8,2.7-4.5C124.1,369.9,124.4,368,124.4,365.9z"/>
		<path id="XMLID_32_" class="st0" d="M184,388h-9.9V384c-1.9,1.7-3.8,3-5.8,3.8c-1.9,0.9-4.1,1.3-6.6,1.3c-2.9,0-5.5-0.6-8-1.7
			s-4.5-2.7-6.3-4.8c-1.8-2-3.1-4.5-4.1-7.4c-1-2.9-1.5-6-1.5-9.4c0-3.4,0.5-6.5,1.5-9.4c1-2.9,2.4-5.3,4.1-7.4
			c1.8-2,3.9-3.7,6.3-4.8c2.4-1.2,5.1-1.7,8-1.7c2.5,0,4.7,0.4,6.6,1.3s3.9,2.1,5.8,3.8v-12.9h-8.6v-8.9H184V388z M174.2,355.5
			c-1.2-1.3-2.7-2.3-4.5-3s-3.6-1-5.3-1c-3.7,0-6.7,1.3-9.1,4s-3.5,6.2-3.5,10.4c0,4.3,1.2,7.8,3.5,10.4s5.4,4,9.1,4
			c1.7,0,3.5-0.3,5.3-1c1.9-0.7,3.4-1.7,4.5-3V355.5z"/>
		<path id="XMLID_29_" class="st0" d="M204.3,369.6c0.5,3.1,1.9,5.6,4.4,7.6c2.4,2,5.7,3,9.8,3c3.2,0,6-0.5,8.4-1.5s4.4-2.3,6.1-4
			l5,6.9c-2.9,2.8-5.9,4.8-9.1,5.8c-3.2,1-6.7,1.6-10.5,1.6c-3.4,0-6.6-0.6-9.6-1.7s-5.5-2.7-7.7-4.8c-2.2-2-3.8-4.5-5.1-7.3
			c-1.2-2.8-1.8-6-1.8-9.4c0-3.4,0.6-6.5,1.7-9.3c1.1-2.8,2.7-5.3,4.8-7.4c2-2.1,4.5-3.7,7.4-4.9c2.9-1.2,6-1.7,9.5-1.7
			c3.6,0,6.8,0.6,9.8,1.8c2.9,1.2,5.4,3,7.5,5.3c2.1,2.3,3.7,5.2,4.9,8.5s1.8,7.1,1.8,11.4H204.3z M230.3,360.9
			c-0.5-2.9-2-5.2-4.4-6.9c-2.4-1.7-5.2-2.6-8.3-2.6c-3.1,0-5.9,0.9-8.4,2.6c-2.5,1.7-4,4-4.5,6.9H230.3z"/>
	</g>
	<g id="XMLID_7_">
		<path id="XMLID_26_" class="st0" d="M41.7,455.6v-27.8l-5-0.1c-0.2,0-0.4-0.1-0.4-0.2v-0.2h5.3v-4.5c0-1.7,0.2-3.2,0.6-4.4
			c0.4-1.2,1-2.3,1.7-3.1s1.6-1.4,2.6-1.8c1-0.4,2.1-0.6,3.3-0.6c0.6,0,1.2,0.1,1.8,0.2c0.6,0.1,1.1,0.3,1.6,0.5l-0.1,0.2
			c0,0.1-0.1,0.2-0.2,0.2c-0.2,0-0.5-0.1-1-0.2s-1.2-0.2-2.1-0.2c-1,0-2,0.2-2.9,0.5c-0.9,0.3-1.7,0.9-2.3,1.6
			c-0.7,0.7-1.2,1.7-1.6,2.9c-0.4,1.2-0.6,2.6-0.6,4.3v4.5H53v0.6H42.4v27.8H41.7z"/>
		<path id="XMLID_23_" class="st0" d="M70,425.4c2.1,0,3.9,0.4,5.5,1.1c1.6,0.7,3,1.8,4.1,3.1c1.1,1.3,1.9,2.9,2.5,4.8
			s0.8,4,0.8,6.3s-0.3,4.4-0.8,6.2s-1.4,3.5-2.5,4.8c-1.1,1.3-2.5,2.4-4.1,3.1c-1.6,0.7-3.5,1.1-5.5,1.1c-2.1,0-3.9-0.4-5.5-1.1
			c-1.6-0.7-3-1.7-4.1-3.1c-1.1-1.3-1.9-2.9-2.5-4.8S57,443,57,440.7s0.3-4.4,0.8-6.3s1.4-3.5,2.5-4.8c1.1-1.3,2.4-2.4,4.1-3.1
			C66,425.8,67.9,425.4,70,425.4z M70,455.3c2,0,3.8-0.4,5.3-1.1c1.5-0.7,2.8-1.7,3.8-3c1-1.3,1.8-2.8,2.3-4.6
			c0.5-1.8,0.8-3.8,0.8-6s-0.3-4.2-0.8-6c-0.5-1.8-1.3-3.4-2.3-4.6s-2.3-2.3-3.8-3S72,426,70,426c-2,0-3.8,0.4-5.3,1.1
			c-1.5,0.7-2.8,1.7-3.8,3s-1.8,2.8-2.3,4.6c-0.5,1.8-0.8,3.8-0.8,6s0.3,4.2,0.8,6s1.3,3.3,2.3,4.6c1,1.3,2.3,2.3,3.8,3
			C66.2,455,67.9,455.3,70,455.3z"/>
		<path id="XMLID_21_" class="st0" d="M91.3,455.6v-29.6h0.2c0.3,0,0.4,0.2,0.4,0.5l0.1,8.2c0.4-1.5,0.9-2.8,1.6-3.9
			c0.6-1.1,1.4-2.1,2.2-2.9s1.8-1.4,2.9-1.8s2.3-0.6,3.6-0.6c1,0,1.9,0.1,2.7,0.3c0.8,0.2,1.6,0.5,2.4,0.8l-0.1,0.2
			c0,0.1-0.1,0.1-0.1,0.2c0,0.1-0.1,0.1-0.2,0.1c-0.1,0-0.3,0-0.5-0.2c-0.2-0.1-0.5-0.2-0.9-0.3s-0.8-0.2-1.4-0.3
			c-0.5-0.1-1.2-0.2-1.9-0.2c-2.6,0-4.8,0.9-6.4,2.6c-1.6,1.7-2.9,4.2-3.9,7.4v19.5H91.3z"/>
		<path id="XMLID_17_" class="st0" d="M136.1,425.4c1.3,0,2.5,0.2,3.6,0.5s2,0.8,2.9,1.4h7.2v0.1c0,0.1-0.1,0.2-0.2,0.3
			c-0.1,0.1-0.2,0.1-0.3,0.1l-5.9,0.1c0.9,0.8,1.6,1.8,2.1,3c0.5,1.1,0.7,2.4,0.7,3.8s-0.2,2.7-0.7,3.9s-1.1,2.2-2,3
			s-1.9,1.5-3.2,1.9c-1.2,0.5-2.6,0.7-4.1,0.7c-2,0-3.7-0.4-5.2-1.1c-0.5,0.3-1,0.6-1.4,1c-0.4,0.4-0.8,0.7-1.1,1.1
			c-0.3,0.4-0.5,0.8-0.7,1.2c-0.2,0.4-0.3,0.8-0.3,1.2c0,1,0.3,1.8,0.9,2.3s1.5,0.9,2.5,1.2c1,0.3,2.2,0.4,3.5,0.5
			c1.3,0.1,2.7,0.1,4,0.2s2.7,0.2,4,0.3c1.3,0.1,2.5,0.4,3.5,0.8c1,0.4,1.9,1,2.5,1.8s0.9,1.8,0.9,3.1c0,1.2-0.3,2.3-0.9,3.4
			c-0.6,1.1-1.5,2-2.6,2.9c-1.1,0.8-2.5,1.5-4.1,2c-1.6,0.5-3.4,0.7-5.3,0.7c-2,0-3.8-0.2-5.3-0.6s-2.8-1-3.9-1.7
			c-1-0.7-1.8-1.6-2.4-2.5s-0.8-2-0.8-3.1c0-1.7,0.6-3.2,1.7-4.4c1.1-1.2,2.7-2.2,4.7-2.8c-1.1-0.3-2-0.7-2.7-1.3
			c-0.7-0.6-1-1.5-1-2.6c0-0.4,0.1-0.8,0.3-1.3c0.2-0.4,0.4-0.9,0.7-1.3c0.3-0.4,0.7-0.8,1.1-1.2c0.4-0.4,0.9-0.7,1.5-1
			c-1.4-0.8-2.4-1.9-3.2-3.3c-0.7-1.4-1.1-3-1.1-4.7c0-1.4,0.2-2.7,0.7-3.8s1.1-2.2,2-3c0.9-0.8,1.9-1.5,3.2-1.9
			S134.6,425.4,136.1,425.4z M148.7,457.9c0-1.1-0.3-2-0.8-2.7s-1.3-1.2-2.2-1.6c-0.9-0.4-2-0.6-3.2-0.8c-1.2-0.1-2.4-0.2-3.7-0.3
			c-1.3-0.1-2.6-0.1-3.8-0.2c-1.3-0.1-2.4-0.2-3.5-0.4c-0.9,0.3-1.8,0.7-2.6,1.2c-0.8,0.4-1.5,1-2.1,1.5c-0.6,0.6-1,1.2-1.3,1.9
			c-0.3,0.7-0.5,1.5-0.5,2.3c0,1,0.3,2,0.8,2.9c0.5,0.9,1.3,1.7,2.3,2.3c1,0.7,2.2,1.2,3.6,1.6c1.4,0.4,3,0.6,4.8,0.6
			c1.6,0,3.1-0.2,4.6-0.6s2.8-1,3.9-1.7c1.1-0.7,2-1.6,2.7-2.6C148.4,460.3,148.7,459.2,148.7,457.9z M136.1,443.7
			c1.5,0,2.8-0.2,3.9-0.6c1.1-0.4,2.1-1,2.9-1.8s1.4-1.7,1.8-2.8c0.4-1.1,0.6-2.3,0.6-3.6s-0.2-2.5-0.7-3.6c-0.4-1.1-1.1-2-1.9-2.8
			c-0.8-0.8-1.8-1.4-2.9-1.8c-1.1-0.4-2.4-0.6-3.9-0.6s-2.7,0.2-3.9,0.6c-1.1,0.4-2.1,1-2.9,1.8c-0.8,0.8-1.4,1.7-1.9,2.8
			c-0.4,1.1-0.7,2.3-0.7,3.6s0.2,2.5,0.7,3.6c0.4,1.1,1.1,2,1.9,2.8s1.8,1.4,2.9,1.8C133.4,443.5,134.7,443.7,136.1,443.7z"/>
		<path id="XMLID_14_" class="st0" d="M167.4,425.4c2.1,0,3.9,0.4,5.5,1.1c1.6,0.7,3,1.8,4.1,3.1c1.1,1.3,1.9,2.9,2.5,4.8
			s0.8,4,0.8,6.3s-0.3,4.4-0.8,6.2s-1.4,3.5-2.5,4.8c-1.1,1.3-2.5,2.4-4.1,3.1c-1.6,0.7-3.5,1.1-5.5,1.1c-2.1,0-3.9-0.4-5.5-1.1
			c-1.6-0.7-3-1.7-4.1-3.1c-1.1-1.3-1.9-2.9-2.5-4.8s-0.8-3.9-0.8-6.2s0.3-4.4,0.8-6.3s1.4-3.5,2.5-4.8c1.1-1.3,2.4-2.4,4.1-3.1
			C163.4,425.8,165.3,425.4,167.4,425.4z M167.4,455.3c2,0,3.8-0.4,5.3-1.1c1.5-0.7,2.8-1.7,3.8-3c1-1.3,1.8-2.8,2.3-4.6
			c0.5-1.8,0.8-3.8,0.8-6s-0.3-4.2-0.8-6c-0.5-1.8-1.3-3.4-2.3-4.6s-2.3-2.3-3.8-3s-3.3-1.1-5.3-1.1c-2,0-3.8,0.4-5.3,1.1
			c-1.5,0.7-2.8,1.7-3.8,3s-1.8,2.8-2.3,4.6c-0.5,1.8-0.8,3.8-0.8,6s0.3,4.2,0.8,6s1.3,3.3,2.3,4.6c1,1.3,2.3,2.3,3.8,3
			C163.6,455,165.4,455.3,167.4,455.3z"/>
		<path id="XMLID_11_" class="st0" d="M199.3,425.4c2.1,0,3.9,0.4,5.5,1.1c1.6,0.7,3,1.8,4.1,3.1c1.1,1.3,1.9,2.9,2.5,4.8
			s0.8,4,0.8,6.3s-0.3,4.4-0.8,6.2s-1.4,3.5-2.5,4.8c-1.1,1.3-2.5,2.4-4.1,3.1c-1.6,0.7-3.5,1.1-5.5,1.1c-2.1,0-3.9-0.4-5.5-1.1
			c-1.6-0.7-3-1.7-4.1-3.1c-1.1-1.3-1.9-2.9-2.5-4.8s-0.8-3.9-0.8-6.2s0.3-4.4,0.8-6.3s1.4-3.5,2.5-4.8c1.1-1.3,2.4-2.4,4.1-3.1
			C195.4,425.8,197.2,425.4,199.3,425.4z M199.3,455.3c2,0,3.8-0.4,5.3-1.1c1.5-0.7,2.8-1.7,3.8-3c1-1.3,1.8-2.8,2.3-4.6
			c0.5-1.8,0.8-3.8,0.8-6s-0.3-4.2-0.8-6c-0.5-1.8-1.3-3.4-2.3-4.6s-2.3-2.3-3.8-3s-3.3-1.1-5.3-1.1c-2,0-3.8,0.4-5.3,1.1
			c-1.5,0.7-2.8,1.7-3.8,3s-1.8,2.8-2.3,4.6c-0.5,1.8-0.8,3.8-0.8,6s0.3,4.2,0.8,6s1.3,3.3,2.3,4.6c1,1.3,2.3,2.3,3.8,3
			C195.5,455,197.3,455.3,199.3,455.3z"/>
		<path id="XMLID_8_" class="st0" d="M241.7,455.6c-0.3,0-0.4-0.2-0.4-0.5l-0.1-5.7c-1.3,2-2.9,3.6-4.8,4.8
			c-1.9,1.2-3.9,1.8-6.2,1.8c-3.9,0-6.8-1.2-8.8-3.7c-2-2.5-3-6.3-3-11.4c0-2.1,0.3-4.1,0.8-6c0.5-1.9,1.4-3.5,2.4-4.9
			c1.1-1.4,2.4-2.5,4.1-3.3c1.6-0.8,3.5-1.2,5.7-1.2c2.2,0,4.1,0.4,5.7,1.3c1.6,0.9,3,2.2,4.1,4V412h0.7v43.5H241.7z M230.2,455.3
			c2.2,0,4.2-0.6,6.1-1.8s3.5-2.9,4.9-5.1v-16.7c-1.3-2.1-2.8-3.5-4.4-4.4c-1.6-0.9-3.4-1.3-5.5-1.3c-2.1,0-3.9,0.4-5.4,1.1
			s-2.8,1.8-3.8,3.1c-1,1.3-1.8,2.9-2.3,4.7c-0.5,1.8-0.8,3.7-0.8,5.8c0,4.9,0.9,8.6,2.8,10.9C223.7,454.1,226.5,455.3,230.2,455.3z
			"/>
	</g>
	<g id="XMLID_3_">
		<path id="XMLID_4_" class="st0" d="M283,512.8H0V0.8h283V512.8z M2,510.8h279V2.8H2V510.8z"/>
	</g>
</g>
</svg>
