<?xml version="1.0" encoding="utf-8"?>
<!-- Generator: Adobe Illustrator 19.0.0, SVG Export Plug-In . SVG Version: 6.00 Build 0)  -->
<svg version="1.1" id="Layer_1" xmlns="http://www.w3.org/2000/svg" xmlns:xlink="http://www.w3.org/1999/xlink" x="0px" y="0px"
	 viewBox="0 0 238.4 222.6" style="enable-background:new 0 0 238.4 222.6;" xml:space="preserve">
<style type="text/css">
	.st0{fill:#A4C68D;}
	.st1{fill:#CCCCCC;}
	.st2{fill:#FFFFFF;}
</style>
<g id="XMLID_32_">
	<path class="st0" d="M178.2,2.4c31.9,0,57.8,25.9,57.8,57.8c0,31.8-25.9,57.8-57.8,57.8s-57.8-25.9-57.8-57.8
		C120.5,28.4,146.4,2.4,178.2,2.4z"/>
</g>
<g id="XMLID_7_">
	<path class="st1" d="M211,110.7c-9.4,6.2-20.7,9.8-32.8,9.8c-6.7,0-13.1-1.1-19.1-3.1c4.8,4.2,9,9.3,12.3,15
		c3.2,5.5,5.5,11.5,6.8,17.6L211,110.7z M120.4,60.2c0,31.8,25.9,57.8,57.8,57.8c16.3,0,31-6.8,41.5-17.6l5.2-6.2l0,0
		c6.9-9.5,11-21.3,11-33.9c0-31.8-25.9-57.8-57.8-57.8C146.3,2.4,120.4,28.4,120.4,60.2z M119.1,102.1c6.6,0,13.1,1.1,19.2,3.2
		c-9.6-8.5-16.5-20-19.2-33c-2.7,13-9.5,24.5-19.1,33C106.2,103.2,112.7,102.1,119.1,102.1z M122.4,220c9-0.5,17.8-3.1,25.7-7.6
		c13.4-7.7,22.9-20.2,26.9-35.1c1.9-7.2,2.5-14.6,1.6-21.8L122.4,220z M90.3,112.4c-13.4,7.7-22.9,20.2-26.9,35.1
		c-0.4,1.5-0.8,3.1-1,4.6l57.3,67.4l56.5-67.2c-1.2-6.5-3.5-12.8-6.9-18.7c-10.3-17.8-29.5-28.9-50.1-28.9
		C109.1,104.6,99.1,107.3,90.3,112.4z M119.3,222.6c-21.5,0-41.5-11.5-52.2-30.1c-7-12.2-9.5-26.1-7.3-39.8L13.3,98l0,0
		C5,87.6,0,74.5,0,60.2C0,27,27,0,60.2,0c29,0,53.4,20.7,59,48.1c5.6-27.4,29.9-48.1,59-48.1c33.2,0,60.2,27,60.2,60.2
		c0,16.2-6.4,30.9-16.9,41.8l-42.8,51c1.3,8.2,0.9,16.7-1.3,25c-4.2,15.5-14.1,28.5-28,36.6c-9,5.2-19.3,8-29.6,8.1c0,0,0,0,0,0
		c0,0,0,0,0,0c0,0,0,0,0,0C119.5,222.6,119.4,222.6,119.3,222.6z M79.2,117.3c-6,2-12.4,3.1-19,3.1c-12.2,0-23.6-3.7-33.1-10
		l33.3,39.2c0.2-0.9,0.4-1.9,0.7-2.8C64.1,135.2,70.5,125.1,79.2,117.3z M69.2,191.3c9.9,17.1,28,28,47.8,28.8l-55.1-64.8
		C60.3,167.7,62.8,180.2,69.2,191.3z M60.2,118c31.9,0,57.8-25.9,57.8-57.8c0-31.8-25.9-57.8-57.8-57.8S2.5,28.4,2.5,60.2
		C2.5,92.1,28.4,118,60.2,118z"/>
</g>
<g id="XMLID_4_">
	<path id="XMLID_37_" class="st1" d="M52.1,57.8c0-0.2,0-0.5,0.1-0.8s0.2-0.6,0.3-0.8c-0.1-0.2-0.3-0.4-0.5-0.6s-0.4-0.3-0.7-0.4
		s-0.5-0.2-0.7-0.2S50.2,55,50.1,55c-0.6,0-1.2,0.1-1.7,0.4s-0.9,0.7-1.3,1.2s-0.7,1.2-0.9,2s-0.3,1.7-0.3,2.8
		c0,0.9,0.1,1.8,0.3,2.6s0.4,1.6,0.8,2.2s0.9,1.2,1.5,1.5s1.4,0.6,2.3,0.6c0.5,0,1-0.1,1.5-0.2s1-0.3,1.4-0.6s0.9-0.5,1.3-0.9
		s0.8-0.7,1.1-1.1l1.7,1.6c-0.7,0.9-1.3,1.6-2,2.2s-1.4,1-2.1,1.3s-1.4,0.5-2.1,0.7s-1.4,0.2-2,0.2c-1.2,0-2.4-0.2-3.4-0.6
		s-2-1-2.8-1.8s-1.4-1.7-1.9-2.9s-0.7-2.4-0.7-3.9c0-1.3,0.2-2.6,0.7-3.8s1.1-2.3,1.9-3.2s1.8-1.6,3-2.2s2.4-0.8,3.8-0.8
		c1.1,0,2.1,0.1,3,0.4s1.6,0.7,2.2,1.1s1,1,1.3,1.6s0.4,1.2,0.4,1.8c0,0.4-0.1,0.7-0.2,1s-0.3,0.6-0.5,0.9s-0.5,0.4-0.8,0.6
		s-0.7,0.2-1.1,0.2c-0.4,0-0.8-0.1-1.1-0.2s-0.5-0.3-0.7-0.6s-0.3-0.5-0.4-0.8S52.1,58,52.1,57.8z"/>
	<path id="XMLID_39_" class="st1" d="M68.3,52.5c1.3,0,2.5,0.2,3.6,0.6s2.1,1,2.9,1.8s1.4,1.8,1.9,2.9s0.7,2.4,0.7,3.9
		c0,1.5-0.2,2.9-0.7,4.1s-1.1,2.3-1.8,3.1s-1.7,1.5-2.8,2s-2.3,0.7-3.6,0.7c-1.3,0-2.5-0.2-3.6-0.6s-2.1-1-2.9-1.8s-1.5-1.8-1.9-2.9
		s-0.7-2.4-0.7-3.8c0-1.5,0.2-2.8,0.7-4.1s1.1-2.3,2-3.2s1.8-1.5,2.9-2S67.1,52.5,68.3,52.5z M68.3,55c-0.7,0-1.3,0.2-1.8,0.6
		c-0.5,0.4-0.8,0.9-1.1,1.5s-0.5,1.3-0.6,2.1s-0.2,1.5-0.2,2.3c0,0.9,0.1,1.8,0.2,2.8s0.4,1.7,0.7,2.4s0.7,1.3,1.2,1.7
		c0.5,0.4,1.1,0.7,1.9,0.7c0.7,0,1.3-0.2,1.7-0.6c0.5-0.4,0.8-0.9,1.1-1.5c0.3-0.6,0.4-1.3,0.5-2.1s0.1-1.5,0.1-2.3
		c0-0.9-0.1-1.8-0.2-2.7c-0.1-0.9-0.3-1.7-0.6-2.5s-0.7-1.3-1.2-1.8C69.6,55.3,69,55,68.3,55z"/>
</g>
<g id="XMLID_3_">
	<path id="XMLID_11_" class="st1" d="M115.9,139.5v21.4c0,0.2,0,0.4,0,0.6s0,0.5,0,0.8s0,0.6,0,0.9s0,0.6-0.1,0.9l2.3-0.1v2.7h-6.8
		l-0.2-1.7h0c-0.8,0.8-1.6,1.4-2.5,1.7s-1.7,0.5-2.6,0.5c-1.1,0-2.1-0.2-3-0.6s-1.7-1-2.3-1.8s-1.1-1.7-1.5-2.9s-0.5-2.4-0.5-3.8
		c0-1.5,0.2-2.8,0.6-4s1-2.3,1.8-3.2s1.7-1.6,2.8-2.1s2.3-0.8,3.6-0.8c0.7,0,1.3,0.1,1.8,0.2s1,0.3,1.4,0.4v-2.4c0-0.2,0-0.4,0-0.6
		s0-0.5,0-0.8s0-0.6,0-0.9s0-0.6,0.1-0.9l-2.5,0.1v-2.7c0.8,0,1.6,0,2.2-0.1s1.2-0.2,1.6-0.3s0.8-0.2,1.1-0.3s0.5-0.2,0.6-0.4H115.9
		z M107.8,164c0.6,0,1.2-0.2,1.7-0.5s0.9-0.7,1.3-1.2v-10.8c-0.3-0.2-0.6-0.3-1.1-0.5s-0.9-0.2-1.5-0.2c-0.8,0-1.5,0.2-2.1,0.6
		s-1,0.9-1.3,1.5s-0.6,1.4-0.7,2.2s-0.2,1.6-0.2,2.5c0,0.8,0.1,1.5,0.2,2.3s0.4,1.4,0.7,2s0.7,1.1,1.2,1.5S107.1,164,107.8,164z"/>
	<path id="XMLID_34_" class="st1" d="M137.2,157l-11.8,0.2c0,1,0.1,1.9,0.3,2.7s0.5,1.6,0.9,2.2s0.9,1.1,1.6,1.4s1.4,0.5,2.4,0.5
		c0.4,0,0.8,0,1.2-0.1s0.9-0.2,1.4-0.5s0.9-0.5,1.4-0.8s0.9-0.8,1.3-1.3l1.6,1.5c-0.6,0.9-1.3,1.7-2.1,2.3s-1.5,1-2.2,1.3
		s-1.5,0.5-2.2,0.6s-1.4,0.2-2,0.2c-1.3,0-2.5-0.2-3.6-0.7s-2-1.1-2.8-1.9s-1.4-1.8-1.8-3s-0.6-2.5-0.6-4c0-1.3,0.2-2.5,0.6-3.6
		s1-2.2,1.8-3.1s1.7-1.6,2.8-2.1s2.3-0.8,3.7-0.8c0.7,0,1.3,0.1,2,0.2s1.3,0.3,1.9,0.6s1.2,0.6,1.7,1.1s1,1,1.3,1.7s0.7,1.4,0.9,2.3
		S137.2,155.8,137.2,157z M129.3,150.6c-0.5,0-1,0.1-1.4,0.3s-0.8,0.5-1.1,0.8s-0.6,0.8-0.7,1.3s-0.3,1-0.4,1.6h6.6
		c0-0.7-0.1-1.4-0.3-1.9s-0.4-0.9-0.6-1.3s-0.6-0.6-0.9-0.7S129.7,150.6,129.3,150.6z"/>
</g>
<g id="XMLID_2_">
	<path id="XMLID_5_" class="st2" d="M173.6,65.1c0,0.6,0.2,1.1,0.5,1.5s0.7,0.9,1.2,1.2s1.1,0.6,1.7,0.8s1.4,0.3,2.1,0.3
		c0.3,0,0.6,0,0.9-0.1s0.6-0.2,0.8-0.3s0.4-0.3,0.6-0.6s0.2-0.5,0.2-0.8c0-0.3-0.1-0.6-0.3-0.9s-0.4-0.5-0.8-0.7s-0.8-0.4-1.3-0.6
		s-1.1-0.4-1.8-0.7c-0.8-0.3-1.5-0.6-2.3-0.9s-1.5-0.7-2.1-1.1s-1.1-1-1.5-1.6s-0.6-1.5-0.6-2.4c0-0.7,0.1-1.4,0.4-2.1
		s0.7-1.3,1.2-1.9s1.3-1,2.1-1.3s1.9-0.5,3.1-0.5c0.3,0,0.7,0,1.1,0.1s0.8,0.1,1.2,0.2s0.8,0.2,1.1,0.4s0.7,0.3,1,0.5h0l-0.1-1h2.7
		v6.4h-2.3c-0.1-0.6-0.3-1.2-0.6-1.7s-0.6-0.9-1.1-1.3s-0.9-0.6-1.5-0.8s-1.2-0.3-1.8-0.3c-0.3,0-0.6,0-0.9,0.1s-0.5,0.2-0.8,0.3
		s-0.4,0.3-0.5,0.6s-0.2,0.5-0.2,0.9c0,0.4,0.1,0.8,0.3,1s0.5,0.5,0.9,0.7s0.9,0.4,1.4,0.6s1.1,0.4,1.7,0.6c0.9,0.3,1.8,0.7,2.5,1
		s1.4,0.8,2,1.3s1,1.1,1.3,1.7s0.5,1.4,0.5,2.2c0,0.9-0.2,1.8-0.6,2.5s-0.9,1.3-1.5,1.7s-1.3,0.8-2.1,1s-1.6,0.3-2.4,0.3
		c-0.5,0-1,0-1.5-0.1s-1-0.2-1.5-0.3s-0.9-0.3-1.3-0.4s-0.7-0.4-1-0.6h0l0.1,1.1h-2.7l-0.1-6.2H173.6z"/>
</g>
</svg>
